<svg width="925" height="938" viewBox="0 0 925 938" fill="none" xmlns="http://www.w3.org/2000/svg">
<path fill-rule="evenodd" clip-rule="evenodd" d="M843.986 192.063C877.995 250.127 885.336 320.029 864.13 383.891V383.895C932.616 459.972 944.4 571.468 893.329 660.18C859.993 718.645 803.094 759.922 737.169 773.466C705.74 871.432 614.593 937.849 511.708 937.755C444.435 938.133 380.26 909.511 335.591 859.208C235.162 880.749 132.316 834.965 81.1145 745.923C47.1437 687.84 39.869 617.93 61.1535 554.098C-7.82265 477.859 -19.5548 365.756 32.1418 276.887C65.4612 218.408 122.369 177.126 188.302 163.606C214.575 83.1798 281.743 22.8684 364.524 5.37487C447.305 -12.1186 533.131 15.8612 589.697 78.782C690.071 57.2672 792.848 103.053 843.986 192.063ZM177.583 231.614C138.651 245.588 105.919 272.886 85.1809 308.677V307.755C36.8955 391.779 65.6503 499.03 149.493 547.63H292.994C293.861 548.09 192.736 479.805 192.736 479.805C183.246 474.417 177.44 464.292 177.583 453.38V231.614ZM733.474 459.294L505.611 326.973L584.337 281.505C585.204 281.044 586.243 281.044 587.111 281.505L775.794 390.54C825.571 419.262 855.065 475.653 855.065 532.708C855.065 536.302 749.368 536.302 749.368 532.708V485.344C749.036 474.463 742.994 464.562 733.47 459.29L733.474 459.294ZM806.47 337.876L812.017 341.204L812.021 340.462C823.551 273.315 795.235 205.553 739.358 166.574C683.481 127.595 610.11 124.422 551.075 158.43L362.392 267.282C361.609 267.819 361.184 268.741 361.282 269.684V360.79L589.325 229.212C598.797 223.654 610.534 223.654 620.005 229.212L806.47 337.876ZM318.216 502.716L239.31 457.255C238.511 456.773 237.967 455.962 237.825 455.04V237.528C237.914 169.41 277.356 107.478 339.046 78.5921C400.735 49.7057 473.561 59.0677 525.939 102.618L520.392 105.762L333.743 213.497C324.292 219.04 318.463 229.154 318.404 240.11L318.216 502.716ZM462.732 351.731L361.091 410.317L361.279 527.481L462.493 556.086L564.564 527.481V410.317L462.732 351.731Z" fill="#30AC8F"/>
<path d="M61.6328 592.633L146.008 628.961" stroke="white" stroke-width="17.5781" stroke-linecap="round"/>
<path d="M801.086 628.961L894.836 592.633" stroke="white" stroke-width="17.5781" stroke-linecap="round"/>
<path d="M446.008 644.195H490.539" stroke="white" stroke-width="17.5781" stroke-linecap="round"/>
<path d="M158.898 572.711L438.977 573.883" stroke="white" stroke-width="17.5781" stroke-linecap="round"/>
<path d="M438.977 573.883V720.367" stroke="white" stroke-width="17.5781" stroke-linecap="round"/>
<path d="M158.898 572.711V719.195" stroke="white" stroke-width="17.5781" stroke-linecap="round"/>
<path d="M158.898 719.195L438.977 720.367" stroke="white" stroke-width="17.5781" stroke-linecap="round"/>
<path d="M499.914 570.367L779.992 571.539" stroke="white" stroke-width="17.5781" stroke-linecap="round"/>
<path d="M779.992 571.539V718.023" stroke="white" stroke-width="17.5781" stroke-linecap="round"/>
<path d="M499.914 573.883V720.367" stroke="white" stroke-width="17.5781" stroke-linecap="round"/>
<path d="M498.742 720.367L778.82 721.539" stroke="white" stroke-width="17.5781" stroke-linecap="round"/>
<rect x="266.125" y="592.047" width="112.5" height="107.812" rx="53.9062" fill="white"/>
<path d="M557.336 640.68L665.148 593.805" stroke="white" stroke-width="33.9844" stroke-linecap="round"/>
<path d="M557.336 640.68L637.023 684.039" stroke="white" stroke-width="33.9844" stroke-linecap="round"/>
<path d="M379.211 785.992C379.211 785.992 421.542 815.164 463.293 815.289C505.043 815.414 547.375 786.496 547.375 786.496" stroke="white" stroke-width="35.1562" stroke-linecap="round"/>
</svg>
