<svg width="1025" height="1025" xmlns="http://www.w3.org/2000/svg">

 <g>
  <title>background</title>
  <rect fill="none" id="canvas_background" height="482" width="642" y="-1" x="-1"/>
 </g>
 <g>
  <title>Layer 1</title>
  <rect stroke="null" x="182.99973" y="178.666687" id="svg_1" fill="white" height="659.33361" width="647.00057"/>
  <path stroke="null" id="svg_2" fill="white" d="m771.155,325.457333c23.059,39.39 28.036,86.812 13.658,130.135l0,0.003c46.435,51.61 54.424,127.247 19.798,187.429c-22.603,39.662 -61.181,67.664 -105.878,76.852c-21.309,66.459 -83.108,111.516 -152.865,111.452c-45.611,0.256 -89.122,-19.16 -119.409,-53.285c-68.092,14.613 -137.822,-16.447 -172.537,-76.852c-23.032,-39.403 -27.965,-86.829 -13.534,-130.132c-46.766,-51.72 -54.72,-127.77 -19.67,-188.058c22.591,-39.671 61.175,-67.677 105.878,-76.849c17.813,-54.56 63.354,-95.475 119.48,-107.342c56.126,-11.868 114.317,7.113 152.669,49.798c68.055,-14.595 137.739,16.466 172.41,76.849zm-451.826,26.831c-26.397,9.48 -48.59,27.999 -62.65,52.279l0,-0.626c-32.738,57.002 -13.242,129.76 43.605,162.73l97.294,0c0.588,0.312 -67.976,-46.012 -67.976,-46.012c-6.434,-3.655 -10.37,-10.524 -10.273,-17.927l0,-150.444zm376.898,154.456l-154.493,-89.765l53.377,-30.845c0.588,-0.313 1.293,-0.313 1.881,0l127.929,73.968c33.749,19.485 53.746,57.74 53.746,96.446c0,2.438 -71.663,2.438 -71.663,0l0,-32.131c-0.226,-7.382 -4.322,-14.098 -10.779,-17.675l0.002,0.002zm49.492,-82.369l3.761,2.258l0.003,-0.503c7.817,-45.552 -11.381,-91.521 -49.266,-117.964c-37.885,-26.443 -87.632,-28.596 -127.657,-5.525l-127.929,73.844c-0.531,0.364 -0.82,0.99 -0.753,1.63l0,61.805l154.615,-89.261c6.422,-3.771 14.38,-3.771 20.802,0l126.424,73.716zm-331.04,111.826l-53.499,-30.84c-0.542,-0.326 -0.911,-0.877 -1.007,-1.503l0,-147.558c0.061,-46.21 26.803,-88.224 68.629,-107.82c41.826,-19.597 91.202,-13.246 126.715,16.299l-3.761,2.133l-126.549,73.086c-6.408,3.76 -10.361,10.621 -10.401,18.054l-0.127,178.149zm97.983,-102.426l-68.913,39.744l0.127,79.483l68.624,19.406l69.205,-19.406l0,-79.483l-69.043,-39.744z" clip-rule="evenodd" fill-rule="evenodd"/>
  <path id="svg_3" stroke-linecap="round" stroke-width="15" stroke="black" d="m240.397,596.45l57.236,24.562"/>
  <path id="svg_4" stroke-linecap="round" stroke-width="15" stroke="black" d="m742.007,621.012l63.596,-24.562"/>
  <path stroke="black" id="svg_5" stroke-linecap="round" stroke-width="15" d="m501.139,631.312l30.208,0"/>
  <path id="svg_6" stroke-linecap="round" stroke-width="15" stroke="black" d="m306.378,582.981l189.991,0.792"/>
  <path id="svg_7" stroke-linecap="round" stroke-width="15" stroke="black" d="m496.369,583.773l0,99.039"/>
  <path id="svg_8" stroke-linecap="round" stroke-width="15" stroke="black" d="m306.378,582.981l0,99.038"/>
  <path id="svg_9" stroke-linecap="round" stroke-width="15" stroke="black" d="m306.378,682.019l189.991,0.793"/>
  <path id="svg_10" stroke-linecap="round" stroke-width="15" stroke="black" d="m537.707,581.396l189.991,0.792"/>
  <path id="svg_11" stroke-linecap="round" stroke-width="15" stroke="black" d="m727.698,582.188l0,99.039"/>
  <path id="svg_12" stroke-linecap="round" stroke-width="15" stroke="black" d="m537.707,583.773l0,99.039"/>
  <path id="svg_13" stroke-linecap="round" stroke-width="15" stroke="black" d="m536.912,682.812l189.991,0.792"/>
  <rect id="svg_14" fill="black" rx="36.5" height="73" width="76" y="596" x="380"/>
  <path id="svg_15" stroke-linecap="round" stroke-width="29" stroke="black" d="m577.398,628.598l73.204,-32.196"/>
  <path id="svg_16" stroke-linecap="round" stroke-width="29" stroke="black" d="m577.399,628.395l54.202,29.21"/>
  <path id="svg_17" stroke-linecap="round" stroke-width="30" stroke="black" d="m456,727c0,0 28.697,19.914 57,20c28.303,0.085 57,-19.656 57,-19.656"/>
 </g>
</svg>