<svg width="33" height="33" viewBox="0 0 33 33" fill="none" xmlns="http://www.w3.org/2000/svg">
<circle cx="16.5" cy="16.5" r="16.5" fill="#EB5A30"/>
<path d="M26.7746 25.1597H7.23571C6.36226 25.1597 5.58016 24.708 5.14352 23.9516C4.70687 23.1951 4.70707 22.2919 5.14396 21.5356L14.9134 4.62429C15.3502 3.8683 16.1321 3.41699 17.0051 3.41699C17.8782 3.41696 18.6602 3.8683 19.0969 4.62426L28.8664 21.5356C29.3033 22.292 29.3034 23.1951 28.8668 23.9516C28.4302 24.708 27.6481 25.1597 26.7746 25.1597ZM17.0051 4.62482C16.5686 4.62482 16.1777 4.85046 15.9593 5.22846L6.18987 22.1398C5.97139 22.518 5.97131 22.9695 6.18964 23.3478C6.40795 23.726 6.79901 23.9518 7.23574 23.9518H26.7747C27.2114 23.9518 27.6025 23.726 27.8207 23.3478C28.0391 22.9696 28.039 22.518 27.8205 22.1398L18.051 5.22843C17.8327 4.85046 17.4417 4.62479 17.0051 4.62482Z" fill="white"/>
<path d="M17.0474 16.9837C16.5471 16.9837 16.138 16.5782 16.138 16.0779V9.07239C16.138 8.57209 16.5471 8.1665 17.0474 8.1665C17.5477 8.1665 17.9568 8.57209 17.9568 9.07239V16.0779C17.9568 16.5782 17.5477 16.9837 17.0474 16.9837Z" fill="white"/>
<path d="M15.6791 20.1692C15.6791 20.5317 15.8232 20.8794 16.0795 21.1358C16.3359 21.3921 16.6836 21.5362 17.0461 21.5362C17.4086 21.5362 17.7563 21.3921 18.0127 21.1358C18.269 20.8794 18.4131 20.5317 18.4131 20.1692C18.4131 19.8067 18.269 19.459 18.0127 19.2026C17.7563 18.9463 17.4086 18.8022 17.0461 18.8022C16.6836 18.8022 16.3359 18.9463 16.0795 19.2026C15.8232 19.459 15.6791 19.8067 15.6791 20.1692Z" fill="white"/>
</svg>
